<mxfile host="app.diagrams.net" modified="2023-12-17T14:07:22.603Z" agent="Mozilla/5.0 (Windows NT 10.0; Win64; x64; rv:120.0) Gecko/20100101 Firefox/120.0" version="22.1.11" etag="vf_AiJaP9vpTefYPR08x" type="github">
  <diagram name="Page-1" id="A-NSjSeQaGcypmAM_YA2">
    <mxGraphModel>
      <root>
        <mxCell id="0" />
        <mxCell id="1" parent="0" />
      </root>
    </mxGraphModel>
  </diagram>
</mxfile>
